<svg xml:space="preserve" viewBox="584.288 567.5944 1403.6799999999998 526.1999999999999" width="1403.6799999999998" y="0px" x="0px" xmlns:xlink="http://www.w3.org/1999/xlink" xmlns="http://www.w3.org/2000/svg" id="Layer_1" version="1.1" style="max-height: 500px" height="526.1999999999999">
<path d="M1492.000000,1756.000000 &#xA;&#9;C994.725159,1756.000000 498.450378,1756.000000 2.087775,1756.000000 &#xA;&#9;C2.087775,1171.460815 2.087775,586.921570 2.087775,2.191172 &#xA;&#9;C828.441711,2.191172 1654.883423,2.191172 2481.662598,2.191172 &#xA;&#9;C2481.662598,586.666504 2481.662598,1171.333252 2481.662598,1756.000000 &#xA;&#9;C2152.254395,1756.000000 1822.627197,1756.000000 1492.000000,1756.000000 &#xA;M701.888733,681.682861 &#xA;&#9;C692.556702,681.673462 683.223450,681.562805 673.892883,681.676575 &#xA;&#9;C656.710205,681.886047 656.389404,678.177795 651.966431,699.244507 &#xA;&#9;C635.007935,780.018738 617.891357,860.759705 600.858887,941.518372 &#xA;&#9;C598.076599,954.710571 595.421204,967.929626 592.467773,982.301208 &#xA;&#9;C597.304077,981.793152 600.915527,981.706055 604.400940,980.998108 &#xA;&#9;C621.303040,977.564941 633.937927,967.702026 643.920105,954.100525 &#xA;&#9;C653.709778,940.761292 660.422913,925.828247 664.001282,909.809387 &#xA;&#9;C669.222534,886.436462 673.487732,862.848511 678.064819,839.333618 &#xA;&#9;C680.917419,824.678711 683.593872,809.989563 686.349365,795.315796 &#xA;&#9;C705.956421,857.404968 722.611877,919.834717 740.580261,982.027222 &#xA;&#9;C756.748779,977.384521 767.697449,968.153381 776.057617,955.508728 &#xA;&#9;C785.337891,941.472473 791.471741,925.996521 796.074158,909.963318 &#xA;&#9;C806.172546,874.783630 815.868835,839.488586 825.755981,804.248108 &#xA;&#9;C826.540955,801.450134 827.532593,798.710022 828.963745,794.288879 &#xA;&#9;C830.194214,798.239258 831.103516,800.369446 831.512695,802.591675 &#xA;&#9;C837.057068,832.707642 842.522217,862.838196 848.027405,892.961426 &#xA;&#9;C852.276001,916.209229 856.456421,939.470215 860.864319,962.687988 &#xA;&#9;C862.721924,972.472595 864.278931,973.594055 874.157166,973.658325 &#xA;&#9;C886.154480,973.736389 898.154175,973.795654 910.149841,973.636169 &#xA;&#9;C919.162048,973.516418 921.193359,970.865967 919.776733,961.805359 &#xA;&#9;C919.571655,960.493774 919.155029,959.216614 918.880676,957.914124 &#xA;&#9;C903.857666,886.594482 888.838257,815.274109 873.821716,743.953125 &#xA;&#9;C870.324646,727.343811 866.905457,710.717896 863.326111,694.126404 &#xA;&#9;C860.766785,682.263123 859.979370,681.690552 848.215637,681.661499 &#xA;&#9;C837.551025,681.635071 826.883118,681.812378 816.222839,681.597656 &#xA;&#9;C810.691223,681.486267 807.404785,683.808472 805.979309,689.038757 &#xA;&#9;C805.366882,691.285645 804.699402,693.517578 804.080505,695.762817 &#xA;&#9;C789.932312,747.090332 775.827026,798.429810 761.547852,849.720825 &#xA;&#9;C760.654236,852.930908 761.041260,857.111572 756.714478,859.305481 &#xA;&#9;C748.415161,828.817932 740.194702,798.672668 732.005066,768.519043 &#xA;&#9;C725.202087,743.471375 718.499084,718.396179 711.595093,693.376465 &#xA;&#9;C710.312988,688.730286 709.865784,683.192017 701.888733,681.682861 &#xA;M1380.165527,946.215637 &#xA;&#9;C1381.256226,946.142029 1382.980347,945.598083 1383.332764,946.072754 &#xA;&#9;C1385.307739,948.732300 1386.796265,951.749756 1388.734985,954.440247 &#xA;&#9;C1398.590210,968.116943 1411.929077,975.559814 1429.157715,977.299683 &#xA;&#9;C1429.157715,911.422058 1429.157715,846.314758 1429.157715,780.808411 &#xA;&#9;C1418.375122,781.516907 1408.752075,784.514648 1401.173462,791.196289 &#xA;&#9;C1393.895020,797.613403 1387.892700,805.477905 1381.147461,812.906982 &#xA;&#9;C1379.675293,811.171509 1377.981689,809.182739 1376.296021,807.187134 &#xA;&#9;C1339.868286,764.054688 1274.451294,769.781982 1246.286743,818.691528 &#xA;&#9;C1231.503906,844.362854 1229.345337,872.266907 1233.022949,900.919006 &#xA;&#9;C1234.946533,915.906555 1239.815674,930.044739 1247.910400,942.923767 &#xA;&#9;C1257.792114,958.645630 1271.044678,970.348511 1288.867065,976.256165 &#xA;&#9;C1320.003784,986.577148 1356.722046,978.931335 1380.165527,946.215637 &#xA;M1095.476196,819.542908 &#xA;&#9;C1079.694580,794.716492 1056.538696,781.808289 1027.804199,778.926819 &#xA;&#9;C982.949158,774.428833 936.495850,796.292419 922.966064,849.890930 &#xA;&#9;C917.238647,872.580200 917.889832,895.490906 925.333313,917.845093 &#xA;&#9;C935.436096,948.185730 955.982849,967.762512 986.804260,976.643677 &#xA;&#9;C999.822510,980.394897 1013.061829,980.772217 1026.394775,980.152893 &#xA;&#9;C1063.493286,978.429810 1093.666016,954.833984 1104.541870,919.211792 &#xA;&#9;C1107.329346,910.081421 1105.192139,906.985840 1095.433594,906.790955 &#xA;&#9;C1085.114624,906.584961 1074.763428,907.180603 1064.473267,906.596985 &#xA;&#9;C1055.777466,906.103699 1050.689941,908.869446 1046.542114,917.111328 &#xA;&#9;C1036.468140,937.128784 1007.244629,940.615112 992.098145,924.216125 &#xA;&#9;C983.873718,915.311462 980.753540,904.399048 980.191467,891.515808 &#xA;&#9;C984.531372,891.515808 988.132324,891.515869 991.733337,891.515808 &#xA;&#9;C1027.031128,891.515137 1062.329102,891.556213 1097.626831,891.488403 &#xA;&#9;C1108.122925,891.468201 1109.768799,889.713867 1109.947021,879.298157 &#xA;&#9;C1110.300415,858.641663 1106.844116,838.877197 1095.476196,819.542908 &#xA;M1788.641479,902.212524 &#xA;&#9;C1789.125977,904.488892 1789.542236,906.782349 1790.105347,909.039124 &#xA;&#9;C1798.259888,941.719238 1817.062256,964.925964 1849.660034,975.783936 &#xA;&#9;C1864.796509,980.825684 1880.480591,981.595093 1896.067383,979.780396 &#xA;&#9;C1931.374390,975.669739 1956.684692,957.557007 1970.164429,924.153931 &#xA;&#9;C1977.537842,905.882263 1979.454346,886.734192 1977.595093,867.291687 &#xA;&#9;C1973.005615,819.303345 1943.904419,783.934998 1894.290527,778.950073 &#xA;&#9;C1842.920776,773.788818 1800.613525,800.667297 1789.662231,852.871826 &#xA;&#9;C1786.338867,868.713684 1786.289795,884.558289 1788.641479,902.212524 &#xA;M1751.469971,791.504150 &#xA;&#9;C1744.772095,787.925964 1738.447144,783.022339 1731.307739,781.013306 &#xA;&#9;C1708.106812,774.484558 1687.030029,779.207275 1669.573730,796.314209 &#xA;&#9;C1663.440430,802.324646 1658.333252,809.382202 1652.234253,816.579285 &#xA;&#9;C1641.921875,797.686707 1626.676270,785.268677 1604.309937,780.698303 &#xA;&#9;C1604.309937,798.990784 1604.309814,815.940186 1604.310059,832.889587 &#xA;&#9;C1604.310669,875.521484 1604.281494,918.153503 1604.331909,960.785339 &#xA;&#9;C1604.345215,972.026611 1605.944458,973.606323 1616.879028,973.670288 &#xA;&#9;C1628.202759,973.736511 1639.528564,973.793640 1650.850708,973.648010 &#xA;&#9;C1659.458984,973.537231 1661.471680,971.606079 1661.634766,963.051453 &#xA;&#9;C1661.838013,952.397339 1661.688477,941.736389 1661.689819,931.078430 &#xA;&#9;C1661.692383,910.761658 1661.579956,890.443970 1661.738037,870.128418 &#xA;&#9;C1661.834839,857.695129 1665.576172,846.505981 1674.673828,837.628296 &#xA;&#9;C1687.104614,825.497986 1712.427490,826.894287 1716.631348,849.600952 &#xA;&#9;C1717.772949,855.767761 1718.204468,862.142517 1718.236450,868.425476 &#xA;&#9;C1718.395264,899.732483 1718.245361,931.041016 1718.355469,962.348450 &#xA;&#9;C1718.388306,971.650208 1720.356323,973.546692 1729.435913,973.653931 &#xA;&#9;C1740.425415,973.783813 1751.417725,973.719360 1762.408691,973.677612 &#xA;&#9;C1774.183960,973.632874 1775.651978,972.234680 1775.670654,960.500977 &#xA;&#9;C1775.721069,928.860168 1775.815186,897.218323 1775.602417,865.578857 &#xA;&#9;C1775.542114,856.614441 1775.058960,847.573486 1773.768188,838.713501 &#xA;&#9;C1771.233154,821.312256 1765.851318,805.002502 1751.469971,791.504150 &#xA;M1450.305420,702.999878 &#xA;&#9;C1450.305664,787.616211 1450.305298,872.232483 1450.307861,956.848816 &#xA;&#9;C1450.307983,959.513733 1450.156128,962.194336 1450.387451,964.840393 &#xA;&#9;C1450.937988,971.142273 1452.874634,973.453674 1458.954468,973.575623 &#xA;&#9;C1472.274414,973.842773 1485.606689,973.836304 1498.927124,973.582275 &#xA;&#9;C1505.061401,973.465271 1506.996094,971.196289 1507.615967,964.955261 &#xA;&#9;C1507.812744,962.974609 1507.691406,960.960938 1507.691406,958.962341 &#xA;&#9;C1507.692505,884.006958 1507.743652,809.051392 1507.608398,734.096252 &#xA;&#9;C1507.594727,726.471313 1507.100830,718.730469 1505.728394,711.245361 &#xA;&#9;C1500.525757,682.871887 1485.562378,662.376221 1457.192261,653.301331 &#xA;&#9;C1455.196167,652.662781 1453.005371,652.633057 1450.305420,652.230957 &#xA;&#9;C1450.305420,669.058899 1450.305420,685.029358 1450.305420,702.999878 &#xA;M1141.659180,861.036682 &#xA;&#9;C1141.659180,893.359436 1141.657837,925.682251 1141.661987,958.005005 &#xA;&#9;C1141.662354,960.670532 1141.647827,963.337708 1141.732300,966.001221 &#xA;&#9;C1141.884766,970.807495 1144.478760,973.517761 1149.213135,973.559021 &#xA;&#9;C1163.206299,973.681030 1177.202759,973.697327 1191.194824,973.518738 &#xA;&#9;C1195.392090,973.465149 1197.968628,970.964905 1198.209839,966.588623 &#xA;&#9;C1198.356323,963.929993 1198.335205,961.260437 1198.335693,958.595764 &#xA;&#9;C1198.342773,920.941406 1198.340820,883.287109 1198.340942,845.632751 &#xA;&#9;C1198.340942,842.098511 1198.340820,838.564270 1198.340820,834.249695 &#xA;&#9;C1206.581299,834.249695 1213.522461,834.358765 1220.458496,834.221802 &#xA;&#9;C1228.885742,834.055420 1230.496094,832.667786 1230.737793,824.369202 &#xA;&#9;C1231.018921,814.713928 1230.975098,805.040955 1230.772461,795.382019 &#xA;&#9;C1230.576904,786.061401 1228.854004,784.493408 1219.447510,784.353149 &#xA;&#9;C1212.598877,784.250977 1205.747437,784.333130 1198.340820,784.333130 &#xA;&#9;C1198.340820,769.925537 1198.340942,756.978333 1198.340942,744.031067 &#xA;&#9;C1198.340942,730.747131 1198.340820,717.463135 1198.340820,703.429443 &#xA;&#9;C1184.872681,705.687683 1174.196655,711.463074 1165.096680,720.014160 &#xA;&#9;C1146.847900,737.162781 1141.955933,759.625244 1141.279541,784.344299 &#xA;&#9;C1133.420288,784.344299 1126.158813,784.154541 1118.911987,784.398682 &#xA;&#9;C1111.941772,784.633606 1109.948608,786.523560 1109.791382,793.408691 &#xA;&#9;C1109.547852,804.066223 1109.543091,814.737671 1109.794312,825.394897 &#xA;&#9;C1109.959106,832.382385 1111.762085,833.995117 1118.971069,834.198120 &#xA;&#9;C1126.199951,834.401733 1133.439209,834.242920 1141.659180,834.242920 &#xA;&#9;C1141.659180,843.233032 1141.659180,851.144348 1141.659180,861.036682 &#xA;M1581.838745,831.228516 &#xA;&#9;C1578.941528,824.525146 1576.725098,817.415588 1573.015137,811.197144 &#xA;&#9;C1563.122314,794.615356 1548.114136,785.055664 1528.305664,780.520569 &#xA;&#9;C1528.305664,784.772339 1528.305664,788.037842 1528.305664,791.303406 &#xA;&#9;C1528.305664,829.967590 1528.305420,868.631775 1528.305786,907.295959 &#xA;&#9;C1528.306030,925.294800 1528.240723,943.294067 1528.333130,961.292419 &#xA;&#9;C1528.387695,971.909729 1530.076294,973.592651 1540.396851,973.672424 &#xA;&#9;C1551.062256,973.754883 1561.728760,973.722961 1572.394653,973.680481 &#xA;&#9;C1584.181763,973.633545 1585.662720,972.231445 1585.677979,960.502441 &#xA;&#9;C1585.721924,926.838013 1585.919434,893.170532 1585.511230,859.510925 &#xA;&#9;C1585.403198,850.604858 1583.326416,841.722778 1581.838745,831.228516 &#xA;M1513.691040,719.213196 &#xA;&#9;C1515.485596,729.112488 1521.211426,736.308899 1529.864868,740.844971 &#xA;&#9;C1546.353027,749.487976 1563.146118,749.519592 1579.635864,740.785339 &#xA;&#9;C1601.808960,729.040833 1602.539062,696.857300 1580.222778,684.196777 &#xA;&#9;C1565.342041,675.754456 1549.733154,675.195190 1534.066895,681.725159 &#xA;&#9;C1518.521729,688.204712 1511.733398,700.428772 1513.691040,719.213196 &#xA;z" stroke="none" opacity="1.000000" fill="#000000"/>
<path d="M702.760498,681.750610 &#xA;&#9;C709.865784,683.192017 710.312988,688.730286 711.595093,693.376465 &#xA;&#9;C718.499084,718.396179 725.202087,743.471375 732.005066,768.519043 &#xA;&#9;C740.194702,798.672668 748.415161,828.817932 756.714478,859.305481 &#xA;&#9;C761.041260,857.111572 760.654236,852.930908 761.547852,849.720825 &#xA;&#9;C775.827026,798.429810 789.932312,747.090332 804.080505,695.762817 &#xA;&#9;C804.699402,693.517578 805.366882,691.285645 805.979309,689.038757 &#xA;&#9;C807.404785,683.808472 810.691223,681.486267 816.222839,681.597656 &#xA;&#9;C826.883118,681.812378 837.551025,681.635071 848.215637,681.661499 &#xA;&#9;C859.979370,681.690552 860.766785,682.263123 863.326111,694.126404 &#xA;&#9;C866.905457,710.717896 870.324646,727.343811 873.821716,743.953125 &#xA;&#9;C888.838257,815.274109 903.857666,886.594482 918.880676,957.914124 &#xA;&#9;C919.155029,959.216614 919.571655,960.493774 919.776733,961.805359 &#xA;&#9;C921.193359,970.865967 919.162048,973.516418 910.149841,973.636169 &#xA;&#9;C898.154175,973.795654 886.154480,973.736389 874.157166,973.658325 &#xA;&#9;C864.278931,973.594055 862.721924,972.472595 860.864319,962.687988 &#xA;&#9;C856.456421,939.470215 852.276001,916.209229 848.027405,892.961426 &#xA;&#9;C842.522217,862.838196 837.057068,832.707642 831.512695,802.591675 &#xA;&#9;C831.103516,800.369446 830.194214,798.239258 828.963745,794.288879 &#xA;&#9;C827.532593,798.710022 826.540955,801.450134 825.755981,804.248108 &#xA;&#9;C815.868835,839.488586 806.172546,874.783630 796.074158,909.963318 &#xA;&#9;C791.471741,925.996521 785.337891,941.472473 776.057617,955.508728 &#xA;&#9;C767.697449,968.153381 756.748779,977.384521 740.580261,982.027222 &#xA;&#9;C722.611877,919.834717 705.956421,857.404968 686.349365,795.315796 &#xA;&#9;C683.593872,809.989563 680.917419,824.678711 678.064819,839.333618 &#xA;&#9;C673.487732,862.848511 669.222534,886.436462 664.001282,909.809387 &#xA;&#9;C660.422913,925.828247 653.709778,940.761292 643.920105,954.100525 &#xA;&#9;C633.937927,967.702026 621.303040,977.564941 604.400940,980.998108 &#xA;&#9;C600.915527,981.706055 597.304077,981.793152 592.467773,982.301208 &#xA;&#9;C595.421204,967.929626 598.076599,954.710571 600.858887,941.518372 &#xA;&#9;C617.891357,860.759705 635.007935,780.018738 651.966431,699.244507 &#xA;&#9;C656.389404,678.177795 656.710205,681.886047 673.892883,681.676575 &#xA;&#9;C683.223450,681.562805 692.556702,681.673462 702.760498,681.750610 &#xA;z" stroke="none" opacity="1.000000" fill="#F7EA24"/>
<path d="M1379.720581,946.846741 &#xA;&#9;C1356.722046,978.931335 1320.003784,986.577148 1288.867065,976.256165 &#xA;&#9;C1271.044678,970.348511 1257.792114,958.645630 1247.910400,942.923767 &#xA;&#9;C1239.815674,930.044739 1234.946533,915.906555 1233.022949,900.919006 &#xA;&#9;C1229.345337,872.266907 1231.503906,844.362854 1246.286743,818.691528 &#xA;&#9;C1274.451294,769.781982 1339.868286,764.054688 1376.296021,807.187134 &#xA;&#9;C1377.981689,809.182739 1379.675293,811.171509 1381.147461,812.906982 &#xA;&#9;C1387.892700,805.477905 1393.895020,797.613403 1401.173462,791.196289 &#xA;&#9;C1408.752075,784.514648 1418.375122,781.516907 1429.157715,780.808411 &#xA;&#9;C1429.157715,846.314758 1429.157715,911.422058 1429.157715,977.299683 &#xA;&#9;C1411.929077,975.559814 1398.590210,968.116943 1388.734985,954.440247 &#xA;&#9;C1386.796265,951.749756 1385.307739,948.732300 1383.332764,946.072754 &#xA;&#9;C1382.980347,945.598083 1381.256226,946.142029 1379.720581,946.846741 &#xA;M1313.384033,835.980957 &#xA;&#9;C1292.184082,848.677612 1286.864014,883.705078 1298.746338,906.992615 &#xA;&#9;C1305.595825,920.416626 1316.340576,928.491455 1331.964844,928.658691 &#xA;&#9;C1347.978394,928.830078 1359.241699,920.992126 1366.153687,907.038086 &#xA;&#9;C1374.254028,890.684692 1374.391602,873.722656 1368.167847,856.710754 &#xA;&#9;C1360.121582,834.716736 1336.121826,823.439453 1313.384033,835.980957 &#xA;z" stroke="none" opacity="1.000000" fill="#F7EA24"/>
<path d="M1095.825684,820.178345 &#xA;&#9;C1106.844116,838.877197 1110.300415,858.641663 1109.947021,879.298157 &#xA;&#9;C1109.768799,889.713867 1108.122925,891.468201 1097.626831,891.488403 &#xA;&#9;C1062.329102,891.556213 1027.031128,891.515137 991.733337,891.515808 &#xA;&#9;C988.132324,891.515869 984.531372,891.515808 980.191467,891.515808 &#xA;&#9;C980.753540,904.399048 983.873718,915.311462 992.098145,924.216125 &#xA;&#9;C1007.244629,940.615112 1036.468140,937.128784 1046.542114,917.111328 &#xA;&#9;C1050.689941,908.869446 1055.777466,906.103699 1064.473267,906.596985 &#xA;&#9;C1074.763428,907.180603 1085.114624,906.584961 1095.433594,906.790955 &#xA;&#9;C1105.192139,906.985840 1107.329346,910.081421 1104.541870,919.211792 &#xA;&#9;C1093.666016,954.833984 1063.493286,978.429810 1026.394775,980.152893 &#xA;&#9;C1013.061829,980.772217 999.822510,980.394897 986.804260,976.643677 &#xA;&#9;C955.982849,967.762512 935.436096,948.185730 925.333313,917.845093 &#xA;&#9;C917.889832,895.490906 917.238647,872.580200 922.966064,849.890930 &#xA;&#9;C936.495850,796.292419 982.949158,774.428833 1027.804199,778.926819 &#xA;&#9;C1056.538696,781.808289 1079.694580,794.716492 1095.825684,820.178345 &#xA;M1042.944702,836.365662 &#xA;&#9;C1032.238159,823.644653 1018.682617,819.386841 1003.799377,824.070068 &#xA;&#9;C991.144226,828.052185 982.757324,840.051514 981.853638,855.886719 &#xA;&#9;C1004.078735,855.886719 1026.278076,855.886719 1050.201294,855.886719 &#xA;&#9;C1047.833374,849.172302 1045.794189,843.390442 1042.944702,836.365662 &#xA;z" stroke="none" opacity="1.000000" fill="#F6E924"/>
<path d="M1788.500000,901.358154 &#xA;&#9;C1786.289795,884.558289 1786.338867,868.713684 1789.662231,852.871826 &#xA;&#9;C1800.613525,800.667297 1842.920776,773.788818 1894.290527,778.950073 &#xA;&#9;C1943.904419,783.934998 1973.005615,819.303345 1977.595093,867.291687 &#xA;&#9;C1979.454346,886.734192 1977.537842,905.882263 1970.164429,924.153931 &#xA;&#9;C1956.684692,957.557007 1931.374390,975.669739 1896.067383,979.780396 &#xA;&#9;C1880.480591,981.595093 1864.796509,980.825684 1849.660034,975.783936 &#xA;&#9;C1817.062256,964.925964 1798.259888,941.719238 1790.105347,909.039124 &#xA;&#9;C1789.542236,906.782349 1789.125977,904.488892 1788.500000,901.358154 &#xA;M1881.286621,930.023499 &#xA;&#9;C1896.468506,930.471924 1908.013550,923.979065 1914.490723,910.447205 &#xA;&#9;C1924.594849,889.337952 1924.079712,867.846985 1913.409790,847.022339 &#xA;&#9;C1908.657837,837.748047 1900.754272,831.708618 1890.197388,829.714233 &#xA;&#9;C1873.123779,826.488831 1858.229736,833.492493 1850.480347,849.458740 &#xA;&#9;C1841.437256,868.090759 1841.104858,887.478516 1848.702271,906.618164 &#xA;&#9;C1854.141479,920.321045 1864.370850,928.686218 1881.286621,930.023499 &#xA;z" stroke="none" opacity="1.000000" fill="#F7EA24"/>
<path d="M1752.008911,791.971802 &#xA;&#9;C1765.851318,805.002502 1771.233154,821.312256 1773.768188,838.713501 &#xA;&#9;C1775.058960,847.573486 1775.542114,856.614441 1775.602417,865.578857 &#xA;&#9;C1775.815186,897.218323 1775.721069,928.860168 1775.670654,960.500977 &#xA;&#9;C1775.651978,972.234680 1774.183960,973.632874 1762.408691,973.677612 &#xA;&#9;C1751.417725,973.719360 1740.425415,973.783813 1729.435913,973.653931 &#xA;&#9;C1720.356323,973.546692 1718.388306,971.650208 1718.355469,962.348450 &#xA;&#9;C1718.245361,931.041016 1718.395264,899.732483 1718.236450,868.425476 &#xA;&#9;C1718.204468,862.142517 1717.772949,855.767761 1716.631348,849.600952 &#xA;&#9;C1712.427490,826.894287 1687.104614,825.497986 1674.673828,837.628296 &#xA;&#9;C1665.576172,846.505981 1661.834839,857.695129 1661.738037,870.128418 &#xA;&#9;C1661.579956,890.443970 1661.692383,910.761658 1661.689819,931.078430 &#xA;&#9;C1661.688477,941.736389 1661.838013,952.397339 1661.634766,963.051453 &#xA;&#9;C1661.471680,971.606079 1659.458984,973.537231 1650.850708,973.648010 &#xA;&#9;C1639.528564,973.793640 1628.202759,973.736511 1616.879028,973.670288 &#xA;&#9;C1605.944458,973.606323 1604.345215,972.026611 1604.331909,960.785339 &#xA;&#9;C1604.281494,918.153503 1604.310669,875.521484 1604.310059,832.889587 &#xA;&#9;C1604.309814,815.940186 1604.309937,798.990784 1604.309937,780.698303 &#xA;&#9;C1626.676270,785.268677 1641.921875,797.686707 1652.234253,816.579285 &#xA;&#9;C1658.333252,809.382202 1663.440430,802.324646 1669.573730,796.314209 &#xA;&#9;C1687.030029,779.207275 1708.106812,774.484558 1731.307739,781.013306 &#xA;&#9;C1738.447144,783.022339 1744.772095,787.925964 1752.008911,791.971802 &#xA;z" stroke="none" opacity="1.000000" fill="#F5E924"/>
<path d="M1450.305420,701.999878 &#xA;&#9;C1450.305420,685.029358 1450.305420,669.058899 1450.305420,652.230957 &#xA;&#9;C1453.005371,652.633057 1455.196167,652.662781 1457.192261,653.301331 &#xA;&#9;C1485.562378,662.376221 1500.525757,682.871887 1505.728394,711.245361 &#xA;&#9;C1507.100830,718.730469 1507.594727,726.471313 1507.608398,734.096252 &#xA;&#9;C1507.743652,809.051392 1507.692505,884.006958 1507.691406,958.962341 &#xA;&#9;C1507.691406,960.960938 1507.812744,962.974609 1507.615967,964.955261 &#xA;&#9;C1506.996094,971.196289 1505.061401,973.465271 1498.927124,973.582275 &#xA;&#9;C1485.606689,973.836304 1472.274414,973.842773 1458.954468,973.575623 &#xA;&#9;C1452.874634,973.453674 1450.937988,971.142273 1450.387451,964.840393 &#xA;&#9;C1450.156128,962.194336 1450.307983,959.513733 1450.307861,956.848816 &#xA;&#9;C1450.305298,872.232483 1450.305664,787.616211 1450.305420,701.999878 &#xA;z" stroke="none" opacity="1.000000" fill="#F5E824"/>
<path d="M1141.659180,860.046143 &#xA;&#9;C1141.659180,851.144348 1141.659180,843.233032 1141.659180,834.242920 &#xA;&#9;C1133.439209,834.242920 1126.199951,834.401733 1118.971069,834.198120 &#xA;&#9;C1111.762085,833.995117 1109.959106,832.382385 1109.794312,825.394897 &#xA;&#9;C1109.543091,814.737671 1109.547852,804.066223 1109.791382,793.408691 &#xA;&#9;C1109.948608,786.523560 1111.941772,784.633606 1118.911987,784.398682 &#xA;&#9;C1126.158813,784.154541 1133.420288,784.344299 1141.279541,784.344299 &#xA;&#9;C1141.955933,759.625244 1146.847900,737.162781 1165.096680,720.014160 &#xA;&#9;C1174.196655,711.463074 1184.872681,705.687683 1198.340820,703.429443 &#xA;&#9;C1198.340820,717.463135 1198.340942,730.747131 1198.340942,744.031067 &#xA;&#9;C1198.340942,756.978333 1198.340820,769.925537 1198.340820,784.333130 &#xA;&#9;C1205.747437,784.333130 1212.598877,784.250977 1219.447510,784.353149 &#xA;&#9;C1228.854004,784.493408 1230.576904,786.061401 1230.772461,795.382019 &#xA;&#9;C1230.975098,805.040955 1231.018921,814.713928 1230.737793,824.369202 &#xA;&#9;C1230.496094,832.667786 1228.885742,834.055420 1220.458496,834.221802 &#xA;&#9;C1213.522461,834.358765 1206.581299,834.249695 1198.340820,834.249695 &#xA;&#9;C1198.340820,838.564270 1198.340942,842.098511 1198.340942,845.632751 &#xA;&#9;C1198.340820,883.287109 1198.342773,920.941406 1198.335693,958.595764 &#xA;&#9;C1198.335205,961.260437 1198.356323,963.929993 1198.209839,966.588623 &#xA;&#9;C1197.968628,970.964905 1195.392090,973.465149 1191.194824,973.518738 &#xA;&#9;C1177.202759,973.697327 1163.206299,973.681030 1149.213135,973.559021 &#xA;&#9;C1144.478760,973.517761 1141.884766,970.807495 1141.732300,966.001221 &#xA;&#9;C1141.647827,963.337708 1141.662354,960.670532 1141.661987,958.005005 &#xA;&#9;C1141.657837,925.682251 1141.659180,893.359436 1141.659180,860.046143 &#xA;z" stroke="none" opacity="1.000000" fill="#F9EC25"/>
<path d="M1581.996094,832.029053 &#xA;&#9;C1583.326416,841.722778 1585.403198,850.604858 1585.511230,859.510925 &#xA;&#9;C1585.919434,893.170532 1585.721924,926.838013 1585.677979,960.502441 &#xA;&#9;C1585.662720,972.231445 1584.181763,973.633545 1572.394653,973.680481 &#xA;&#9;C1561.728760,973.722961 1551.062256,973.754883 1540.396851,973.672424 &#xA;&#9;C1530.076294,973.592651 1528.387695,971.909729 1528.333130,961.292419 &#xA;&#9;C1528.240723,943.294067 1528.306030,925.294800 1528.305786,907.295959 &#xA;&#9;C1528.305420,868.631775 1528.305664,829.967590 1528.305664,791.303406 &#xA;&#9;C1528.305664,788.037842 1528.305664,784.772339 1528.305664,780.520569 &#xA;&#9;C1548.114136,785.055664 1563.122314,794.615356 1573.015137,811.197144 &#xA;&#9;C1576.725098,817.415588 1578.941528,824.525146 1581.996094,832.029053 &#xA;z" stroke="none" opacity="1.000000" fill="#F5E824"/>
<path d="M1513.555908,718.424194 &#xA;&#9;C1511.733398,700.428772 1518.521729,688.204712 1534.066895,681.725159 &#xA;&#9;C1549.733154,675.195190 1565.342041,675.754456 1580.222778,684.196777 &#xA;&#9;C1602.539062,696.857300 1601.808960,729.040833 1579.635864,740.785339 &#xA;&#9;C1563.146118,749.519592 1546.353027,749.487976 1529.864868,740.844971 &#xA;&#9;C1521.211426,736.308899 1515.485596,729.112488 1513.555908,718.424194 &#xA;z" stroke="none" opacity="1.000000" fill="#F6E924"/>
<path d="M1314.030762,835.607666 &#xA;&#9;C1336.121826,823.439453 1360.121582,834.716736 1368.167847,856.710754 &#xA;&#9;C1374.391602,873.722656 1374.254028,890.684692 1366.153687,907.038086 &#xA;&#9;C1359.241699,920.992126 1347.978394,928.830078 1331.964844,928.658691 &#xA;&#9;C1316.340576,928.491455 1305.595825,920.416626 1298.746338,906.992615 &#xA;&#9;C1286.864014,883.705078 1292.184082,848.677612 1314.030762,835.607666 &#xA;z" stroke="none" opacity="1.000000" fill="#040401"/>
<path d="M1043.349854,836.987122 &#xA;&#9;C1045.794189,843.390442 1047.833374,849.172302 1050.201294,855.886719 &#xA;&#9;C1026.278076,855.886719 1004.078735,855.886719 981.853638,855.886719 &#xA;&#9;C982.757324,840.051514 991.144226,828.052185 1003.799377,824.070068 &#xA;&#9;C1018.682617,819.386841 1032.238159,823.644653 1043.349854,836.987122 &#xA;z" stroke="none" opacity="1.000000" fill="#050501"/>
<path d="M1880.432617,929.996094 &#xA;&#9;C1864.370850,928.686218 1854.141479,920.321045 1848.702271,906.618164 &#xA;&#9;C1841.104858,887.478516 1841.437256,868.090759 1850.480347,849.458740 &#xA;&#9;C1858.229736,833.492493 1873.123779,826.488831 1890.197388,829.714233 &#xA;&#9;C1900.754272,831.708618 1908.657837,837.748047 1913.409790,847.022339 &#xA;&#9;C1924.079712,867.846985 1924.594849,889.337952 1914.490723,910.447205 &#xA;&#9;C1908.013550,923.979065 1896.468506,930.471924 1880.432617,929.996094 &#xA;z" stroke="none" opacity="1.000000" fill="#040401"/>
</svg>